<svg width="83" height="83" viewBox="0 0 83 83" fill="none" xmlns="http://www.w3.org/2000/svg">
<path d="M60.6271 68.6043L69.3396 63.1376C69.909 62.796 70.1938 62.3119 70.1938 61.6855C70.1938 61.0592 69.909 60.5751 69.3396 60.2335L60.6271 54.7668C60.0576 54.4251 59.4745 54.4115 58.8778 54.7258C58.2787 55.0379 57.9792 55.5355 57.9792 56.2189V67.1522C57.9792 67.8355 58.2787 68.3344 58.8778 68.6487C59.4745 68.9608 60.0576 68.946 60.6271 68.6043ZM24.6667 30.9355H58.8333C59.8014 30.9355 60.6123 30.6075 61.266 29.9515C61.922 29.2978 62.25 28.4869 62.25 27.5189C62.25 26.5508 61.922 25.7388 61.266 25.0828C60.6123 24.4291 59.8014 24.1022 58.8333 24.1022H24.6667C23.6986 24.1022 22.8866 24.4291 22.2306 25.0828C21.5769 25.7388 21.25 26.5508 21.25 27.5189C21.25 28.4869 21.5769 29.2978 22.2306 29.9515C22.8866 30.6075 23.6986 30.9355 24.6667 30.9355ZM62.25 78.7689C57.5236 78.7689 53.4954 77.1038 50.1653 73.7737C46.8329 70.4413 45.1667 66.4119 45.1667 61.6855C45.1667 56.9592 46.8329 52.9298 50.1653 49.5974C53.4954 46.2673 57.5236 44.6022 62.25 44.6022C66.9764 44.6022 71.0058 46.2673 74.3382 49.5974C77.6683 52.9298 79.3333 56.9592 79.3333 61.6855C79.3333 66.4119 77.6683 70.4413 74.3382 73.7737C71.0058 77.1038 66.9764 78.7689 62.25 78.7689ZM11 74.9251V17.2689C11 15.3897 11.6685 13.7805 13.0056 12.4411C14.3449 11.1041 15.9542 10.4355 17.8333 10.4355H65.6667C67.5458 10.4355 69.1551 11.1041 70.4944 12.4411C71.8315 13.7805 72.5 15.3897 72.5 17.2689V40.0751C71.4181 39.5626 70.3076 39.1355 69.1688 38.7939C68.0299 38.4522 66.8625 38.196 65.6667 38.0251V17.2689H17.8333V65.273H38.5896C38.8743 67.0383 39.3162 68.7182 39.9153 70.3126C40.512 71.9071 41.2944 73.4161 42.2625 74.8397C41.9778 74.8967 41.6783 74.8534 41.3639 74.7099C41.0519 74.5687 40.7819 74.3842 40.5542 74.1564L37.8208 71.423C37.4792 71.0814 37.0806 70.9105 36.625 70.9105C36.1694 70.9105 35.7708 71.0814 35.4292 71.423L32.6958 74.1564C32.3542 74.498 31.9556 74.6689 31.5 74.6689C31.0444 74.6689 30.6458 74.498 30.3042 74.1564L27.5708 71.423C27.2292 71.0814 26.8306 70.9105 26.375 70.9105C25.9194 70.9105 25.5208 71.0814 25.1792 71.423L22.4458 74.1564C22.1042 74.498 21.7056 74.6689 21.25 74.6689C20.7944 74.6689 20.3958 74.498 20.0542 74.1564L17.3208 71.423C16.9792 71.0814 16.5806 70.9105 16.125 70.9105C15.6694 70.9105 15.2708 71.0814 14.9292 71.423L12.1958 74.1564L11 74.9251ZM24.6667 58.2689H38.5896C38.7604 57.073 39.0167 55.9057 39.3583 54.7668C39.7 53.6279 40.1271 52.5175 40.6396 51.4355H24.6667C23.6986 51.4355 22.8866 51.7624 22.2306 52.4161C21.5769 53.0721 21.25 53.8842 21.25 54.8522C21.25 55.8203 21.5769 56.6312 22.2306 57.2849C22.8866 57.9409 23.6986 58.2689 24.6667 58.2689ZM24.6667 44.6022H45.5083C47.6722 42.4953 50.1914 40.8291 53.066 39.6036C55.9428 38.3805 59.0042 37.7689 62.25 37.7689H24.6667C23.6986 37.7689 22.8866 38.0957 22.2306 38.7495C21.5769 39.4055 21.25 40.2175 21.25 41.1855C21.25 42.1536 21.5769 42.9645 22.2306 43.6182C22.8866 44.2742 23.6986 44.6022 24.6667 44.6022Z" fill="#065AD8"/>
</svg>
