<svg width="37" height="37" viewBox="0 0 37 37" fill="none" xmlns="http://www.w3.org/2000/svg">
<rect width="37" height="37" rx="8.72027" fill="#065AD8"/>
<g clip-path="url(#clip0_230_5621)">
<path d="M16.9783 11.5887C17.4544 11.3631 17.9747 11.2461 18.5016 11.2461C19.0285 11.2461 19.5488 11.3631 20.0249 11.5887L28.8639 15.7761C29.0266 15.8528 29.1628 15.9762 29.2551 16.1306C29.3475 16.2849 29.3919 16.4633 29.3826 16.6429V22.1305C29.3826 22.371 29.287 22.6017 29.117 22.7717C28.947 22.9418 28.7163 23.0373 28.4758 23.0373C28.2353 23.0373 28.0047 22.9418 27.8347 22.7717C27.6646 22.6017 27.5691 22.371 27.5691 22.1305V18.0574L25.7556 18.9569V23.944C25.7556 24.0633 25.732 24.1814 25.6863 24.2916C25.6405 24.4018 25.5735 24.5018 25.489 24.586L25.4437 24.6295L25.3349 24.7293C24.7665 25.2358 24.1521 25.6881 23.4996 26.0803C22.2882 26.8094 20.5382 27.571 18.5016 27.571C16.465 27.571 14.715 26.8094 13.5018 26.0803C12.8493 25.6881 12.2349 25.2358 11.6665 24.7293L11.5577 24.6295L11.516 24.586H11.5124C11.428 24.5014 11.3612 24.401 11.3158 24.2905C11.2703 24.1801 11.2472 24.0617 11.2476 23.9422V18.9551L8.12476 17.4064C7.97211 17.3308 7.84383 17.2137 7.75464 17.0686C7.66545 16.9234 7.61895 16.7561 7.62046 16.5858C7.62198 16.4154 7.67145 16.2489 7.7632 16.1054C7.85496 15.9619 7.98529 15.8471 8.13927 15.7742L16.9783 11.5887ZM16.9202 21.7715L13.0611 19.8564V23.5414C13.4913 23.9063 13.9504 24.2357 14.4339 24.5262C15.4857 25.1573 16.9112 25.7575 18.5016 25.7575C20.092 25.7575 21.5156 25.1591 22.5693 24.5262C23.0528 24.2357 23.5119 23.9063 23.9421 23.5414V19.8564L20.083 21.7715C19.0855 22.2647 17.9176 22.2647 16.9202 21.7715ZM17.7544 13.2281L10.6056 16.6139L17.7272 20.1466C17.968 20.2658 18.233 20.3279 18.5016 20.3279C18.7702 20.3279 19.0352 20.2658 19.276 20.1466L26.3976 16.6139L19.2488 13.2281C19.0152 13.1174 18.76 13.06 18.5016 13.06C18.2432 13.06 17.988 13.1174 17.7544 13.2281Z" fill="white"/>
</g>
<defs>
<clipPath id="clip0_230_5621">
<rect width="21.762" height="21.762" rx="8.72027" transform="matrix(-1 0 0 1 29.3809 7.61914)" fill="white"/>
</clipPath>
</defs>
</svg>
