<svg width="23" height="17" viewBox="0 0 23 17" fill="none" xmlns="http://www.w3.org/2000/svg">
<path d="M9.97826 0.588683C10.4544 0.363107 10.9747 0.246094 11.5016 0.246094C12.0285 0.246094 12.5488 0.363107 13.0249 0.588683L21.8639 4.77605C22.0266 4.8528 22.1628 4.9762 22.2551 5.13056C22.3475 5.28492 22.3919 5.46326 22.3826 5.6429V11.1305C22.3826 11.371 22.287 11.6017 22.117 11.7717C21.947 11.9418 21.7163 12.0373 21.4758 12.0373C21.2353 12.0373 21.0047 11.9418 20.8347 11.7717C20.6646 11.6017 20.5691 11.371 20.5691 11.1305V7.05743L18.7556 7.95693V12.944C18.7556 13.0633 18.732 13.1814 18.6863 13.2916C18.6405 13.4018 18.5735 13.5018 18.489 13.586L18.4437 13.6295L18.3349 13.7293C17.7665 14.2358 17.1521 14.6881 16.4996 15.0803C15.2882 15.8094 13.5382 16.571 11.5016 16.571C9.46504 16.571 7.71501 15.8094 6.50178 15.0803C5.8493 14.6881 5.23488 14.2358 4.66652 13.7293L4.55771 13.6295L4.516 13.586H4.51238C4.42801 13.5014 4.36119 13.401 4.31575 13.2905C4.27031 13.1801 4.24715 13.0617 4.24761 12.9422V7.95511L1.12476 6.40638C0.972106 6.33078 0.843834 6.21371 0.754643 6.06857C0.665452 5.92343 0.618949 5.75611 0.620463 5.58576C0.621977 5.41542 0.671447 5.24895 0.763204 5.10542C0.854961 4.96189 0.985295 4.84711 1.13927 4.77424L9.97826 0.588683ZM9.92022 10.7715L6.0611 8.85642V12.5414C6.49129 12.9063 6.9504 13.2357 7.43392 13.5262C8.48575 14.1573 9.91116 14.7575 11.5016 14.7575C13.092 14.7575 14.5156 14.1591 15.5693 13.5262C16.0528 13.2357 16.5119 12.9063 16.9421 12.5414V8.85642L13.083 10.7715C12.0855 11.2647 10.9176 11.2647 9.92022 10.7715ZM10.7544 2.22809L3.60563 5.61389L10.7272 9.14658C10.968 9.26582 11.233 9.32785 11.5016 9.32785C11.7702 9.32785 12.0352 9.26582 12.276 9.14658L19.3976 5.61389L12.2488 2.22809C12.0152 2.11741 11.76 2.05999 11.5016 2.05999C11.2432 2.05999 10.988 2.11741 10.7544 2.22809Z" fill="white"/>
</svg>
