<svg width="234" height="234" viewBox="0 0 234 234" fill="none" xmlns="http://www.w3.org/2000/svg">
<path opacity="0.1" d="M192.465 84.4768C188.253 68.2646 172.968 69.2712 158.469 72.2816C150.672 73.8986 139.749 76.14 128.353 72.8314C103.821 65.7156 75.6145 63.9355 61.7149 72.8314C47.8153 81.7274 39.4615 92.4454 43.4629 107.423C47.4643 122.4 57.6527 135.849 48.9947 143.873C40.3367 151.898 40.4818 182.239 76.0872 184.602C111.693 186.964 108.164 152.941 131.681 154.521C155.198 156.101 203.467 179.135 205.508 162.443C207.548 145.751 181.359 133.835 190.747 106.104C192.615 100.591 194.379 91.8908 192.465 84.4768Z" fill="#2C2A40"/>
<path opacity="0.1" d="M110.584 57.9426C110.584 57.9426 111.52 52.1269 114.057 52.3506C114.763 52.4111 115.245 53.1288 115.564 53.8977C115.605 54.0009 115.679 54.0885 115.773 54.1484C115.867 54.2082 115.978 54.2374 116.09 54.2317C116.201 54.2261 116.308 54.186 116.396 54.1169C116.484 54.0479 116.548 53.9533 116.579 53.8464C117.253 51.4838 118.643 47.877 120.791 47.877C123.014 47.877 123.089 52.0011 122.925 54.5128C122.92 54.5944 122.942 54.6753 122.988 54.7433C123.033 54.8112 123.1 54.8624 123.178 54.8889C123.255 54.9154 123.339 54.9157 123.417 54.8898C123.495 54.864 123.562 54.8134 123.608 54.7458C124.193 53.8884 125.05 53.0635 126.089 53.3059C128.115 53.7719 127.568 57.9379 127.568 57.9379L110.584 57.9426Z" fill="#2C2A40"/>
<path opacity="0.1" d="M16.9414 112.628C16.9414 112.628 17.8493 106.812 20.4093 107.036C21.1206 107.096 21.6027 107.814 21.9162 108.583C21.9586 108.686 22.0323 108.773 22.1269 108.833C22.2214 108.892 22.3323 108.921 22.444 108.915C22.5557 108.909 22.6627 108.868 22.7502 108.799C22.8376 108.729 22.9011 108.634 22.9318 108.527C23.6104 106.164 24.9957 102.558 27.1438 102.558C29.3668 102.558 29.437 106.686 29.2779 109.198C29.2727 109.28 29.2946 109.361 29.3402 109.429C29.3858 109.497 29.4526 109.548 29.5302 109.574C29.6079 109.601 29.6921 109.601 29.77 109.575C29.8478 109.549 29.915 109.499 29.9612 109.431C30.5462 108.574 31.3979 107.749 32.4416 107.987C34.4633 108.453 33.9204 112.623 33.9204 112.623L16.9414 112.628Z" fill="#2C2A40"/>
<path opacity="0.1" d="M197.103 89.3976C197.103 89.3976 198.015 83.582 200.575 83.8056C201.282 83.8709 201.764 84.5839 202.082 85.3528C202.124 85.456 202.197 85.5436 202.292 85.6034C202.386 85.6633 202.496 85.6924 202.608 85.6868C202.72 85.6812 202.827 85.641 202.915 85.572C203.002 85.5029 203.066 85.4084 203.098 85.3015C203.776 82.9389 205.161 79.332 207.31 79.332C209.533 79.332 209.607 83.4608 209.444 85.9725C209.439 86.0541 209.46 86.1351 209.506 86.203C209.552 86.271 209.618 86.3221 209.696 86.3486C209.774 86.3751 209.858 86.3754 209.936 86.3496C210.014 86.3237 210.081 86.2731 210.127 86.2055C210.712 85.3481 211.568 84.5233 212.607 84.7609C214.634 85.2269 214.086 89.3976 214.086 89.3976H197.103Z" fill="#2C2A40"/>
<path d="M190.397 184.299C190.397 184.299 193.256 183.795 193.088 180.03C192.919 176.265 191.656 171.069 189.133 169.564C186.611 168.058 184.771 170.235 184.771 170.235L190.397 184.299Z" fill="#7B7B9A"/>
<path d="M179.127 169.578C179.212 170.831 180.391 172.672 182.914 174.014C185.436 175.356 186.779 180.128 187.916 182.22C188.265 182.934 188.798 183.541 189.461 183.982C189.74 184.169 190.062 184.283 190.397 184.313C190.397 184.313 190.397 183.982 190.397 183.409C190.406 181.076 190.225 178.746 189.854 176.442C189.166 172.341 186.723 170.915 186.723 170.915C186.278 170.16 185.319 169.62 184.224 169.28C182.436 168.725 180.293 168.697 179.464 169.121C179.244 169.238 179.118 169.387 179.127 169.578Z" fill="#B0B1CA"/>
<path d="M188.903 175.771C189.498 178.287 189.769 182.43 189.46 183.982C189.739 184.169 190.061 184.283 190.396 184.312C190.469 181.678 190.294 179.043 189.872 176.442C189.184 172.341 186.741 170.915 186.741 170.915C186.297 170.16 185.337 169.619 184.242 169.279C185.688 170.724 188.398 173.646 188.903 175.771Z" fill="#2C2A40"/>
<path opacity="0.2" d="M179.127 169.578C179.212 170.831 180.391 172.672 182.914 174.014C185.436 175.356 186.779 180.128 187.916 182.22C188.265 182.933 188.798 183.541 189.461 183.982C189.74 184.169 190.062 184.283 190.397 184.313C190.397 184.313 190.397 183.982 190.397 183.409C190.343 183.361 190.279 183.326 190.21 183.306C189.367 183.096 188.235 182.775 187.561 179.667C186.887 176.558 185.754 174.308 183.817 173.343C182.052 172.467 179.834 169.615 179.46 169.121C179.244 169.238 179.118 169.387 179.127 169.578Z" fill="#2C2A40"/>
<path d="M158.816 90.8934C158.816 90.8934 178.308 87.9856 183.568 96.2244C188.829 104.463 181.757 131.976 176.024 136.142C170.291 140.308 160.777 138.15 157.215 135.532C153.654 132.913 151.997 94.873 158.816 90.8934Z" fill="#2C2A40"/>
<path d="M181.369 125.163C182.175 124.91 182.904 124.459 183.49 123.851C184.075 123.244 184.498 122.5 184.719 121.687L181.776 120.392C181.776 120.392 180.648 123.365 181.369 125.163Z" fill="#00497B"/>
<path d="M181.369 120.098C185.408 126.212 194.515 127.801 194.515 127.801C196.387 127.251 198.914 124.637 201.4 121.454C206.122 115.396 210.76 107.269 210.76 107.269L206.973 106.011C206.973 106.011 200.333 113.318 197.473 114.907C194.614 116.496 193.771 118.006 193.771 118.006C193.458 117.671 193.12 117.359 192.76 117.074C191.262 115.911 189.643 114.913 187.93 114.096C184.678 113.187 181.369 120.098 181.369 120.098Z" fill="#F9B587"/>
<path d="M181.369 120.098C185.408 126.212 194.515 127.801 194.515 127.801C196.387 127.251 198.914 124.637 201.4 121.454C201.4 121.454 196.963 126.151 194.136 126.543C191.309 126.934 185.97 123.113 185.427 121.645C184.884 120.177 185.684 116.454 187.916 114.087C184.678 113.187 181.369 120.098 181.369 120.098Z" fill="#F39568"/>
<path d="M142.646 136.133C142.646 136.133 142.431 148.491 144.176 156.292C145.922 164.093 153.359 143.519 153.359 143.519C153.359 143.519 146.69 137.699 142.646 136.133Z" fill="#2C2A40"/>
<path d="M168.653 143.369C168.653 143.369 168.494 150.653 163.702 155.802C160.733 159.069 158.408 162.863 156.85 166.986C156.85 166.986 164.025 163.724 168.653 164.6C168.653 164.6 171.077 164.726 171.962 163.72C172.846 162.713 173.094 161.525 174.484 161.898C175.874 162.27 177.826 161.837 178.331 161.772C178.837 161.707 182.052 166.795 181.42 170.127C181.42 170.127 178.898 170.817 178.584 171.255C178.27 171.693 176.441 173.585 175.308 173.515C174.175 173.445 171.147 175.211 171.147 175.211C171.147 175.211 155.549 181.12 154.122 182.117C151.716 183.8 140.372 185.636 139.366 179.293C138.359 172.951 148.258 142.81 149.662 139.544C151.066 136.277 166.987 139.418 168.653 143.369Z" fill="#2C2A40"/>
<path d="M154.473 164.26L154.913 164.419C155.072 163.985 155.268 163.519 155.493 163.044L155.067 162.844C154.838 163.352 154.636 163.827 154.473 164.26Z" fill="#5B5B6C"/>
<path d="M177.531 163.64L177.634 164.106C178.102 164.004 178.594 163.906 179.118 163.818L179.038 163.352C178.509 163.44 178.004 163.538 177.531 163.64Z" fill="#5B5B6C"/>
<path d="M154.346 167.862L153.878 167.914V167.988C153.915 168.528 154.123 169.042 154.472 169.456L154.819 169.139C154.541 168.793 154.378 168.37 154.351 167.928L154.346 167.862Z" fill="#5B5B6C"/>
<path d="M158.044 169.233L158.17 169.699C158.638 169.563 159.158 169.405 159.635 169.233L159.49 168.767C159.017 168.92 158.517 169.102 158.044 169.233Z" fill="#5B5B6C"/>
<path d="M157.674 158.398C157.379 158.841 157.098 159.27 156.846 159.68L157.239 159.927C157.492 159.521 157.772 159.097 158.062 158.659L157.674 158.398Z" fill="#5B5B6C"/>
<path d="M156.696 160.817L156.294 160.579C156.022 161.045 155.77 161.488 155.545 161.912L155.957 162.126C156.181 161.711 156.429 161.269 156.696 160.817Z" fill="#5B5B6C"/>
<path d="M166.397 142.876L165.929 142.797C165.845 143.286 165.742 143.785 165.63 144.269L166.098 144.372C166.206 143.878 166.308 143.375 166.397 142.876Z" fill="#5B5B6C"/>
<path d="M159.523 156.553L159.144 156.282C158.825 156.748 158.54 157.135 158.269 157.526L158.652 157.792C158.924 157.401 159.209 156.995 159.523 156.553Z" fill="#5B5B6C"/>
<path d="M160.655 154.204C160.356 154.61 160.056 155.015 159.757 155.43L160.136 155.705L161.03 154.479L160.655 154.204Z" fill="#5B5B6C"/>
<path d="M154.595 165.411L154.127 165.29C153.988 165.792 153.896 166.305 153.851 166.823L154.319 166.86C154.366 166.37 154.458 165.885 154.595 165.411Z" fill="#5B5B6C"/>
<path d="M155.614 169.527L155.525 169.993C155.717 170.027 155.911 170.044 156.106 170.044C156.448 170.041 156.79 170.005 157.126 169.937L157.037 169.471C156.57 169.575 156.088 169.594 155.614 169.527Z" fill="#5B5B6C"/>
<path d="M168.143 167.522L168.222 167.988C168.732 167.9 169.238 167.793 169.729 167.657L169.607 167.191C169.13 167.313 168.639 167.42 168.143 167.522Z" fill="#5B5B6C"/>
<path d="M170.6 166.884L170.754 167.322C171.242 167.155 171.719 166.957 172.181 166.73L171.976 166.311C171.53 166.531 171.07 166.723 170.6 166.884Z" fill="#5B5B6C"/>
<path d="M160.491 168.455L160.632 168.921C161.217 168.734 161.666 168.604 162.082 168.501L161.965 168.035C161.54 168.147 161.086 168.277 160.491 168.455Z" fill="#5B5B6C"/>
<path d="M165.62 167.727V168.193C166.126 168.193 166.645 168.161 167.16 168.11L167.108 167.644C166.608 167.695 166.112 167.723 165.62 167.727Z" fill="#5B5B6C"/>
<path d="M175.032 164.358L175.201 164.791C175.668 164.61 176.144 164.455 176.628 164.325L176.506 163.859C176.005 163.995 175.513 164.162 175.032 164.358Z" fill="#5B5B6C"/>
<path d="M173.557 165.216C173.346 165.437 173.11 165.634 172.855 165.803L173.122 166.185C173.405 165.998 173.666 165.779 173.899 165.533C174.013 165.414 174.142 165.31 174.283 165.225L174.03 164.834C173.856 164.94 173.697 165.068 173.557 165.216Z" fill="#5B5B6C"/>
<path d="M165.382 145.28C165.251 145.746 165.102 146.25 164.942 146.716L165.387 146.865C165.546 146.399 165.701 145.895 165.855 145.401L165.382 145.28Z" fill="#5B5B6C"/>
<path d="M161.277 153.356L161.652 153.631C161.961 153.216 162.26 152.806 162.55 152.405L162.171 152.135L161.277 153.356Z" fill="#5B5B6C"/>
<path d="M163.94 150.215L163.528 149.996C163.29 150.462 163.032 150.872 162.766 151.282L163.159 151.534C163.43 151.119 163.697 150.672 163.94 150.215Z" fill="#5B5B6C"/>
<path d="M163.996 149.069L164.422 149.27C164.633 148.804 164.838 148.338 165.026 147.872L164.59 147.699C164.403 148.165 164.207 148.627 163.996 149.069Z" fill="#5B5B6C"/>
<path d="M163.014 167.811L163.093 168.277C163.574 168.187 164.064 168.151 164.553 168.17L164.581 167.704C164.057 167.683 163.531 167.719 163.014 167.811Z" fill="#5B5B6C"/>
<path d="M142.07 53.4551L143.97 61.5263V61.5775C144.083 62.7422 144.262 63.8996 144.504 65.0446C144.972 67.2441 145.772 70.0401 147.157 72.0346C147.363 72.3343 147.59 72.6192 147.836 72.8873C147.836 72.8873 149.039 77.4961 150.34 81.4757C151.103 83.8057 151.898 85.9493 152.502 86.7835C152.502 86.7835 160.187 85.3482 158.347 80.7721C158.347 80.7721 155.731 74.8026 153.667 70.4082C153.27 69.5554 152.89 68.7632 152.558 68.0782L150.218 62.7239L149.09 60.1609L145.665 52.374L142.07 53.4551Z" fill="#F9B587"/>
<path d="M150.354 81.4659C151.117 83.7959 151.913 85.9395 152.517 86.7737C152.517 86.7737 160.201 85.3384 158.362 80.7623C158.362 80.7623 155.746 74.7928 153.682 70.3984C153.733 70.5662 155.531 76.8525 154.992 78.6187C154.454 80.3848 152.854 82.0997 150.354 81.4659Z" fill="#F39568"/>
<path d="M150.401 87.0725C150.603 90.4982 151.671 93.8177 153.504 96.7234C154.464 97.7346 155.666 97.7299 156.893 97.1894C160.019 95.8566 163.323 91.1314 163.323 91.1314L158.821 81.6576L158.381 80.7256C155.84 81.4153 153.261 83.2187 151.768 84.3977C150.958 85.0361 150.467 85.4881 150.467 85.4881C150.408 86.014 150.386 86.5435 150.401 87.0725Z" fill="#E03641"/>
<path opacity="0.2" d="M150.401 87.0724C150.603 90.4981 151.67 93.8176 153.504 96.7233C154.463 97.7345 155.666 97.7299 156.892 97.1893C154.196 94.5238 152.352 87.0585 151.767 84.4209C150.958 85.0593 150.466 85.5113 150.466 85.5113C150.408 86.0296 150.386 86.5512 150.401 87.0724Z" fill="#2C2A40"/>
<path d="M150.402 87.0721C152.508 84.9938 157.323 82.4447 158.802 81.6898L158.362 80.7578C154.44 81.825 150.448 85.5064 150.448 85.5064C150.396 86.0266 150.381 86.5497 150.402 87.0721Z" fill="#2C2A40"/>
<path d="M136.621 138.309C142.476 145.858 166.938 146.343 166.938 146.343C166.938 146.343 166.072 136.351 166.938 131.403C167.874 125.96 168.717 117.963 168.717 117.963C170.954 119.589 174.375 122.623 176.317 124.385C177.225 125.205 177.81 125.75 177.81 125.75C178.272 123.475 179.06 121.278 180.15 119.226C182.157 115.596 184.362 114.678 184.362 114.678L183.337 113.345L175.91 103.694L167.954 97.1096L166.578 95.9772L160.302 91.9743L157.728 90.334C157.728 90.334 151.082 93.102 149.192 95.9772C147.301 98.8525 142.925 112.189 141.601 118.713C139.878 127.195 137.81 134.38 136.986 137.116C136.752 137.889 136.621 138.309 136.621 138.309Z" fill="#E03641"/>
<path opacity="0.2" d="M140.18 137.722C146.034 145.271 170.497 145.756 170.497 145.756C170.497 145.756 169.631 135.765 170.497 130.816C171.433 125.373 172.275 117.376 172.275 117.376C174.512 119.003 177.933 122.036 179.875 123.798C180.783 124.618 181.368 125.163 181.368 125.163C181.831 122.888 182.619 120.691 183.708 118.639C183.708 118.639 175.135 114.012 171.47 109.972C171.47 109.972 166.902 122.554 165.33 128.891C163.294 137.098 156.391 140.448 150.054 140.029C143.718 139.609 140.535 136.538 140.535 136.538C140.311 137.303 140.18 137.722 140.18 137.722Z" fill="#2C2A40"/>
<path d="M167.582 97.9905C169.032 97.7062 169.772 96.9047 170.858 96.01L170.099 95.3856L163.402 90.0918C162.513 90.6557 161.404 91.2055 161.249 93.4517C161.034 96.8441 164.624 98.5544 167.582 97.9905Z" fill="#2C2A40"/>
<path d="M179.876 123.798C180.784 124.618 181.369 125.163 181.369 125.163C183.377 115.997 187.921 114.087 187.921 114.087L186.896 112.754C183.234 115.415 180.724 119.363 179.876 123.798Z" fill="#2C2A40"/>
<path d="M175.144 87.6316C175.144 87.6316 175.275 91.2711 171.063 92.0167C171.063 92.0306 172.116 87.2541 175.144 87.6316Z" fill="#2C2A40"/>
<path d="M168.241 79.8306C170.787 83.9035 174.896 87.3286 174.896 87.3286C174.896 87.3286 183.671 83.1346 180.788 76.1772C180.174 74.6027 179.235 73.1739 178.032 71.9832C173.642 67.7892 167.792 70.506 167.792 70.506C165.241 73.1342 166.271 76.6758 168.241 79.8306Z" fill="#E03641"/>
<path opacity="0.2" d="M168.241 79.8308C170.787 83.9037 174.896 87.3288 174.896 87.3288C174.896 87.3288 183.671 83.1348 180.788 76.1774C180.174 74.6029 179.235 73.1741 178.032 71.9834C178.083 72.0626 180.503 75.9258 178.032 78.5074C175.561 81.089 171.208 82.0117 168.241 79.8308Z" fill="#2C2A40"/>
<path d="M174.849 77.9805C174.849 77.9805 172.556 66.1673 165.213 66.7032C158.338 67.2065 163.697 76.2609 163.697 76.2609C163.697 76.2609 173.628 79.0849 174.849 77.9805Z" fill="#2C2A40"/>
<path d="M165.775 73.8008C165.775 73.8008 162.625 74.4252 162.92 77.3144C162.92 77.3144 165.587 75.7207 165.775 73.8008Z" fill="#2C2A40"/>
<path d="M171.288 91.2986L170.132 95.3854C170.075 95.6585 169.94 95.9095 169.743 96.1079C169.547 96.3064 169.296 96.4439 169.023 96.5038C164.202 97.5616 161.904 94.0433 162.391 92.8084C163.014 92.5894 173.74 89.1689 175.692 85.0635C175.041 87.609 173.473 89.8277 171.288 91.2986Z" fill="#F9B587"/>
<path d="M162.925 91.0985C164.816 91.8713 166.88 92.124 168.902 91.8301C173.17 91.0752 175.393 86.0424 175.393 86.0424C175.794 83.8605 175.709 81.6175 175.145 79.4718C174.891 78.5955 174.487 77.7694 173.951 77.03C171.944 74.3272 168.607 73.8472 166.768 73.6701C166.32 73.6274 165.87 73.7104 165.468 73.9098C165.066 74.1091 164.728 74.4168 164.493 74.7978L163.688 76.1119L163.15 76.9834C163.043 77.1781 162.948 77.3788 162.864 77.5845C162.548 78.2492 162.357 78.9665 162.303 79.7001L162.237 80.5576C161.466 81.5468 161.021 82.75 160.964 84.0013L160.801 87.8551C160.773 88.5485 160.962 89.2333 161.343 89.8146C161.724 90.3958 162.277 90.8445 162.925 91.0985Z" fill="#F9B587"/>
<path d="M167.338 78.2884C167.338 78.2884 170.754 77.0022 171.48 79.8169L170.946 80.2223C170.946 80.2223 169.917 78.0554 167.202 79.02L167.338 78.2884Z" fill="#2C2A40"/>
<path d="M162.213 80.5534C161.808 81.0814 161.492 81.6716 161.277 82.3009C161.951 82.1611 163.117 82.3009 165.073 83.4938C165.073 83.4938 164.352 82.0958 163.248 81.6019C163.176 81.5733 163.113 81.5275 163.063 81.4687C163.014 81.4098 162.979 81.3397 162.964 81.2645C162.948 81.1894 162.951 81.1115 162.973 81.0378C162.995 80.9642 163.034 80.897 163.089 80.8423L164.544 79.216C164.486 78.8962 164.321 78.6054 164.076 78.3911C163.693 78.0918 163.288 77.8223 162.864 77.585C162.547 78.2494 162.356 78.9668 162.302 79.7006L162.213 80.5534Z" fill="#F39568"/>
<path d="M163.191 77.0532C163.673 77.3074 164.121 77.6204 164.525 77.9852L164.329 78.6329C163.919 78.2501 163.443 77.9438 162.925 77.7289C162.873 77.712 162.826 77.6846 162.786 77.6485C162.746 77.6124 162.714 77.5684 162.692 77.5193C162.67 77.4702 162.658 77.4171 162.658 77.3633C162.658 77.3095 162.669 77.2562 162.691 77.2069C162.737 77.1212 162.816 77.057 162.91 77.0283C163.003 76.9995 163.104 77.0085 163.191 77.0532Z" fill="#2C2A40"/>
<path d="M161.872 83.9219L167.792 85.8604C167.792 85.8604 165.798 88.6564 162.808 87.2584C160.463 86.1447 161.872 83.9219 161.872 83.9219Z" fill="white"/>
<path d="M163.304 91.1637C163.304 91.1637 167.024 92.2635 171.063 88.1953C171.063 88.1953 171.152 90.3808 168.985 92.5244C167.408 94.0809 164.427 93.8246 162.901 93.5683C162.796 93.5514 162.697 93.5093 162.611 93.4457C162.526 93.3822 162.457 93.299 162.411 93.2032C162.365 93.1075 162.343 93.0022 162.347 92.8961C162.351 92.7901 162.38 92.6865 162.433 92.5944L163.304 91.1637Z" fill="#F39568"/>
<path d="M174.293 84.5978C174.293 84.5978 176.253 83.0321 177.419 84.6258C178.584 86.2195 175.673 90.4834 173.782 88.6241C171.892 86.7647 174.293 84.5978 174.293 84.5978Z" fill="#F9B587"/>
<path d="M167.259 80.3804C167.259 80.3804 168.031 79.5136 168.944 79.9144C169.305 80.0426 169.612 80.291 169.811 80.6177C170.011 80.9445 170.091 81.3297 170.039 81.7085C170.039 81.7085 169.524 79.3878 167.259 80.3804Z" fill="#2C2A40"/>
<path d="M163.964 79.7984C163.964 79.7984 163.529 78.3165 162.41 79.393C162.538 79.3144 162.68 79.2624 162.829 79.2403C162.977 79.2182 163.129 79.2263 163.274 79.2642C163.42 79.3021 163.556 79.369 163.674 79.4608C163.793 79.5527 163.891 79.6675 163.964 79.7984Z" fill="#2C2A40"/>
<path d="M163.645 76.1072C163.645 76.1491 163.542 76.3122 163.547 76.3588C163.552 76.4054 165.461 74.7605 168.835 76.0606C172.21 77.3607 173.866 80.5389 173.866 80.5389L175.144 79.4904C174.89 78.6141 174.487 77.788 173.951 77.0485C171.943 74.3457 168.606 73.8657 166.767 73.6887C166.32 73.646 165.87 73.729 165.468 73.9284C165.065 74.1277 164.728 74.4354 164.492 74.8164L163.645 76.1072Z" fill="#F39568"/>
<path d="M173.263 84.8497L174.372 85.353L175.986 83.9084C176.244 82.5104 175.111 78.815 174.849 77.9808C174.704 77.8457 174.47 77.7152 174.306 77.5801C174.306 77.5801 173.192 81.4153 174.4 82.8319L173.263 84.8497Z" fill="#2C2A40"/>
<path d="M143.971 61.5261V61.5773C144.084 62.742 144.262 63.8994 144.504 65.0444L150.204 62.7144L149.077 60.1514L143.971 61.5261Z" fill="#F39568"/>
<path opacity="0.2" d="M152.338 100.419L156.85 104.431C156.85 104.431 155.235 110.736 151.781 109.329C147.621 107.642 152.338 100.419 152.338 100.419Z" fill="#2C2A40"/>
<path d="M137.938 65.7537L158.023 58.2881L153.059 45.0468L132.974 52.5123L137.938 65.7537Z" fill="#2C2A40"/>
<path d="M132.968 52.5233L137.933 65.767L158.02 58.2971L157.266 58.0874L133.539 51.377L133.155 52.1505L132.968 52.5233Z" fill="#2C2A40"/>
<path d="M133.155 52.1459L137.896 64.8444L138.505 64.6207L145.716 54.4526L133.548 51.377L133.155 52.1459Z" fill="white"/>
<path d="M138.505 64.6094L157.714 57.4697L152.75 44.2284L133.541 51.368L138.505 64.6094Z" fill="#2C2A40"/>
<path d="M140.035 47.8626C140.148 47.7278 140.287 47.6171 140.444 47.537C140.601 47.457 140.772 47.4092 140.948 47.3966C141.007 47.2519 141.105 47.1263 141.232 47.0334C141.358 46.9406 141.507 46.884 141.664 46.87C141.866 46.8315 142.076 46.8627 142.258 46.9586C142.417 46.6557 142.815 46.4926 143.03 46.5951L143.171 46.6603C143.217 46.5247 143.304 46.4062 143.419 46.3202C143.553 46.1662 143.727 46.052 143.922 45.9903C144.116 45.9287 144.325 45.9219 144.523 45.9707C144.523 45.9707 146.653 46.8281 146.863 48.4591C147.074 50.0901 147.364 51.9914 146.606 51.7211C146.325 51.5585 146.106 51.3078 145.983 51.0081C146.068 51.9867 146.021 52.7183 145.515 52.5413C145.148 52.306 144.877 51.9472 144.753 51.53C144.799 52.3595 144.715 52.928 144.285 52.7789C143.854 52.6298 143.498 51.8469 143.255 50.9988C143.33 51.9308 143.255 52.6391 142.787 52.4667C142.197 52.257 142.029 50.9429 141.622 49.8804C141.154 48.6362 141.027 49.2886 140.321 48.8319L139.684 49.0696C139.647 48.855 139.659 48.6349 139.72 48.4258C139.781 48.2167 139.889 48.0241 140.035 47.8626Z" fill="#F9B587"/>
<path d="M205.868 108.122C204.976 107.567 204.326 106.699 204.048 105.689C203.968 105.4 203.875 105.093 203.767 104.79C203.346 103.615 203.683 101.104 203.767 100.102C203.922 99.0058 204.262 97.9439 204.773 96.9609C204.984 96.7512 206.247 97.646 205.742 98.9368C205.363 99.9565 205.405 101.084 205.859 102.073C206.121 102.488 207.296 101.733 207.591 100.978C207.885 100.223 210.45 94.5331 210.955 94.3653C211.461 94.1976 211.891 94.3234 211.54 95.7913C211.189 97.2592 209.608 99.8082 209.818 100.521C210.029 101.234 210.408 100.647 210.534 100.27C210.661 99.8921 212.72 94.5051 213.057 94.3094C213.394 94.1137 214.358 93.7782 213.852 96.0616C213.347 98.345 211.784 101.127 211.877 101.63C211.971 102.134 214.119 96.5742 214.718 96.2619C215.317 95.9497 215.757 96.5136 215.284 97.8929C214.812 99.2723 213.548 101.952 213.44 102.255C213.333 102.558 213.403 102.721 213.623 102.6C213.843 102.478 215.177 99.2117 215.495 99.0207C215.813 98.8296 216.557 99.1791 215.738 101.411C214.919 103.643 214.372 105.605 212.144 107.665C210.768 108.932 210.094 109.697 208.803 109.529C208.016 109.398 206.856 108.718 205.868 108.122Z" fill="#F9B587"/>
<path d="M178.032 101.854C178.032 101.854 178.584 95.7959 173.82 94.561C170.404 93.6616 164.624 99.92 163.159 106.952C160.571 119.385 166.571 130.252 170.493 131.65C170.493 131.65 174.073 128.887 171.344 125.163C171.344 125.163 163.959 117.749 167.254 107.078C169.997 98.1912 174.372 95.8938 176.02 100.265L178.032 101.854Z" fill="#2C2A40"/>
<path d="M147.608 108.918L149.648 102.674C149.648 102.674 149.363 91.7552 160.932 89.0058C160.812 88.6328 160.759 88.2414 160.777 87.8501L160.847 86.1865C159.401 86.2844 144.659 90.525 147.608 108.918Z" fill="#2C2A40"/>
<path d="M193.752 121.645C193.62 120.435 193.62 119.215 193.752 118.005C193.438 117.67 193.1 117.359 192.741 117.073C192.245 120.922 193.752 121.645 193.752 121.645Z" fill="#F39568"/>
<path d="M147.172 72.0253C147.378 72.325 147.605 72.61 147.85 72.8781C147.85 72.8781 149.797 71.7504 150.359 71.4521C149.274 71.4833 148.199 71.6765 147.172 72.0253Z" fill="#F39568"/>
<path d="M178.331 162.061C179.375 163.044 180.203 165.323 180.769 167.187C181.214 168.696 181.462 169.917 181.462 169.917C182.398 170.919 184.509 170.63 187.916 170.998C190.976 171.329 193.125 173.454 195.404 174.368C195.653 174.468 195.907 174.554 196.167 174.624C197.524 174.978 198.483 174.754 199.003 174.102C199.522 173.45 199.592 172.564 199.321 171.367C198.755 168.85 192.385 163.323 190.555 162.592C188.669 161.937 186.923 160.937 185.407 159.642C183.236 157.862 181.022 157.741 180.582 158.407C180.507 158.519 180.395 158.696 180.259 158.91C179.599 160.01 178.331 162.061 178.331 162.061Z" fill="#B0B1CA"/>
<path d="M180.278 158.934C180.999 158.855 182.216 158.817 183.086 159.321C184.387 160.076 186.241 161.832 188.234 162.75C191.019 164.221 193.617 166.021 195.97 168.109C197.945 169.973 199.106 172.853 198.535 173.804C197.964 174.755 196.916 174.736 195.437 174.391C195.686 174.492 195.94 174.577 196.2 174.647C198.788 175.323 199.92 173.906 199.354 171.385C198.788 168.864 192.395 163.328 190.565 162.615C188.679 161.96 186.933 160.96 185.417 159.665C183.245 157.885 181.032 157.764 180.592 158.431C180.526 158.542 180.414 158.72 180.278 158.934Z" fill="#2C2A40"/>
<path opacity="0.2" d="M180.77 167.21C181.214 168.72 181.462 169.941 181.462 169.941C182.398 170.943 184.509 170.654 187.916 171.022C190.977 171.353 193.125 173.478 195.404 174.391C195.653 174.492 195.907 174.577 196.167 174.647C197.524 175.001 198.483 174.778 199.003 174.125L199.171 173.133C198.386 173.458 197.535 173.594 196.687 173.528C195.84 173.463 195.02 173.198 194.295 172.755C192.301 171.604 191.402 170.481 189.802 170.039C189.941 169.182 189.807 168.304 189.418 167.527C189.353 168.319 189.189 169.1 188.931 169.852C188.595 169.805 188.255 169.791 187.916 169.81C185.328 169.913 181.252 168.664 180.77 167.21Z" fill="#2C2A40"/>
<path d="M28.6696 143.262C29.4501 143.191 30.1721 142.82 30.682 142.228L30.7381 142.172C31.7209 141.119 32.4276 139.52 33.1203 138.313C33.304 137.989 33.5105 137.677 33.738 137.381C34.3932 136.561 35.5398 134.389 36.546 132.39L36.7005 132.087C37.6692 130.13 38.4601 128.42 38.4601 128.42C38.2006 127.673 37.8878 126.946 37.5241 126.244C37.3416 125.908 37.1404 125.568 36.9251 125.251C36.582 124.669 36.0628 124.209 35.4416 123.937C33.7568 123.42 32.203 124.534 30.9066 126.034C29.6103 127.535 26.1517 133.695 25.5855 136.286C25.5855 136.342 25.5855 136.398 25.5527 136.449C24.9349 139.655 26.0441 143.411 28.6696 143.262Z" fill="#B0B1CA"/>
<path d="M28.6696 143.263C29.4766 143.186 30.2203 142.794 30.7381 142.172C28.9082 143.044 27.7944 142.517 27.1486 141.795C26.3483 140.891 26.0488 138.412 26.2547 137.363C26.7648 134.814 28.6602 130.839 29.6243 129.222C30.5884 127.605 32.5025 125.005 34.3604 124.749C35.2378 124.639 36.1273 124.814 36.897 125.247C36.5539 124.665 36.0346 124.205 35.4134 123.933C33.7286 123.416 32.1749 124.53 30.8785 126.03C29.5822 127.531 25.9739 133.952 25.5246 136.422C24.9349 139.656 26.0441 143.412 28.6696 143.263Z" fill="#2C2A40"/>
<path opacity="0.2" d="M28.6696 143.263C29.4501 143.192 30.172 142.821 30.682 142.228L30.7381 142.172C31.7209 141.119 32.4276 139.521 33.1202 138.314C33.304 137.989 33.5104 137.678 33.738 137.382C34.3932 136.562 35.5398 134.39 36.546 132.391L36.7004 132.088C36.5534 131.902 36.3521 131.766 36.1241 131.698C35.8962 131.63 35.6528 131.635 35.4275 131.711C34.3806 132.781 33.5202 134.017 32.8816 135.369C31.5244 138.076 30.813 140.644 28.2764 140.667C25.7399 140.69 26.1985 139.031 25.8569 136.645C25.8101 136.31 25.7071 136.203 25.5574 136.259C25.5574 136.315 25.5574 136.371 25.5246 136.422C24.9349 139.656 26.0441 143.412 28.6696 143.263Z" fill="#2C2A40"/>
<path d="M70.6681 165.92C70.6962 167.318 71.8054 176.587 74.838 178.46C76.3684 179.392 77.2482 179.369 77.6881 178.66C77.9659 178.101 78.0933 177.48 78.0578 176.857C78.0561 176.221 78.0124 175.586 77.9268 174.956C77.5103 171.559 77.4588 163.697 80.4634 161.987C80.4634 161.987 79.9111 157.933 78.5071 155.43C78.1684 154.743 77.6473 154.161 77.0002 153.748C77.0002 153.748 74.9082 153.748 73.5885 153.939C72.8986 153.973 72.212 154.055 71.5339 154.186C70.5979 154.442 69.7321 155.076 69.5075 156.819C69.091 159.885 70.6167 164.522 70.6681 165.92Z" fill="#B0B1CA"/>
<path d="M70.6684 165.919C70.6965 167.317 71.8056 176.586 74.8383 178.459C76.3686 179.391 77.2485 179.368 77.6884 178.66C76.6542 178.674 75.6522 178.302 74.8804 177.616C73.5606 176.488 71.9039 170.132 72.0022 168.077C72.1005 166.022 71.2487 162.294 70.5046 159.428C69.9383 157.261 70.9726 155.104 71.5295 154.186C70.5935 154.442 69.7277 155.076 69.5031 156.818C69.0912 159.885 70.6169 164.521 70.6684 165.919Z" fill="#2C2A40"/>
<path opacity="0.2" d="M70.6679 165.92C70.696 167.318 71.8051 176.587 74.8378 178.46C76.3681 179.392 77.248 179.369 77.6879 178.66C77.9657 178.101 78.0931 177.48 78.0576 176.857C77.4773 176.983 76.6068 176.764 75.5959 176.2C73.8222 175.207 73.4665 169.778 73.7239 166.2C73.9813 162.621 71.8519 159.797 73.0687 157.541C74.2855 155.286 78.3899 155.798 78.3899 155.798C78.4381 155.678 78.4788 155.555 78.5116 155.43C78.1728 154.743 77.6517 154.161 77.0046 153.748C77.0046 153.748 74.9126 153.748 73.5929 153.939C72.903 153.973 72.2165 154.055 71.5384 154.186C70.6024 154.442 69.7366 155.076 69.5119 156.819C69.0907 159.885 70.6164 164.522 70.6679 165.92Z" fill="#2C2A40"/>
<path d="M70.9114 67.752C70.9114 67.752 52.6594 68.2459 49.1681 76.606C45.6769 84.966 56.6561 108.965 62.5763 111.845C68.4965 114.725 76.8316 111.206 79.6583 108.238C82.4851 105.27 77.7817 70.2823 70.9114 67.752Z" fill="#2C2A40"/>
<path d="M59.5111 90.0682C59.4197 92.4804 58.9459 94.8632 58.1071 97.1281C58.1071 97.1281 57.6999 99.5839 57.0635 102.622C56.3147 106.206 55.5846 108.839 54.5035 111.01C53.7167 112.616 53.0443 114.274 52.4911 115.973C52.4349 116.141 52.3835 116.304 52.3367 116.439C51.9061 117.809 51.7189 118.69 51.7189 118.69L47.7128 117.362C47.7128 117.362 47.4648 113.168 47.535 110.87C47.6239 108.032 47.3291 102.482 49.1496 97.9016C49.2813 97.5584 49.4377 97.2252 49.6176 96.9044C49.9038 94.3788 50.3225 91.8699 50.8718 89.3878C51.0271 88.6042 51.2967 87.8475 51.6721 87.1417C51.6721 87.1417 57.5923 86.5452 59.5111 90.0682Z" fill="#F9B587"/>
<path d="M52.1965 97.3385C52.1965 97.3385 49.8565 97.3618 49.1357 97.9303C49.2674 97.5871 49.4238 97.2538 49.6037 96.933C49.6037 96.933 51.4009 96.8212 52.1965 97.3385Z" fill="#F39568"/>
<path d="M59.5106 90.0682C59.4192 92.4805 58.9454 94.8632 58.1066 97.1281C58.1066 97.1281 57.6994 99.5839 57.0629 102.622C57.3063 100.334 57.1331 96.2241 57.1799 93.2277C57.2127 91.182 55.3641 90.702 53.7495 90.1241C53.0756 89.8818 51.7558 89.6581 50.9743 89.3785C50.9415 89.3785 50.9087 89.4018 50.876 89.4112C51.0313 88.6276 51.3009 87.8709 51.6763 87.165C51.6763 87.165 57.5918 86.5453 59.5106 90.0682Z" fill="#F39568"/>
<path d="M51.1099 115.61L54.9475 118.322C55.1478 118.464 55.312 118.65 55.4267 118.866C55.5413 119.082 55.6032 119.322 55.6073 119.567L55.6916 123.253C55.6941 123.463 55.6128 123.666 55.4655 123.817C55.3181 123.968 55.1168 124.055 54.9053 124.059C54.7265 124.062 54.5519 124.005 54.41 123.897C54.268 123.788 54.1671 123.635 54.1238 123.462L53.2205 119.991L52.3126 119.665L52.8789 121.734L53.5809 123.598L55.3312 125.774C55.3907 125.849 55.4343 125.936 55.4595 126.029C55.4847 126.122 55.4909 126.218 55.4778 126.314C55.4647 126.409 55.4326 126.5 55.3833 126.583C55.334 126.666 55.2685 126.737 55.1908 126.794C55.0516 126.897 54.8793 126.945 54.7068 126.93C54.5342 126.914 54.3734 126.836 54.2548 126.71L51.9476 124.339L50.4079 122.451L51.62 124.819L53.96 128.3C54.0364 128.412 54.0773 128.544 54.0773 128.679C54.0773 128.815 54.0364 128.947 53.96 129.059C53.9038 129.142 53.8298 129.212 53.7434 129.263C53.6569 129.315 53.5602 129.346 53.4601 129.356C53.3599 129.366 53.2588 129.354 53.164 129.32C53.0692 129.286 52.983 129.232 52.9117 129.162L50.3751 126.65L48.9337 124.413L50.2019 128.36L51.3205 130.886C51.3805 131.021 51.3899 131.172 51.3469 131.314C51.304 131.455 51.2115 131.576 51.0865 131.655C50.9466 131.74 50.7787 131.766 50.6192 131.729C50.4598 131.691 50.3216 131.593 50.2347 131.454L48.6107 128.845L47.4361 125.802L48.1942 128.425L48.6107 129.315C48.6319 129.36 48.6439 129.408 48.6462 129.457C48.6484 129.506 48.6408 129.555 48.6238 129.601C48.6068 129.647 48.5808 129.689 48.5472 129.725C48.5136 129.76 48.4731 129.789 48.4282 129.809C48.3491 129.849 48.2584 129.859 48.1725 129.838C48.0866 129.816 48.0113 129.765 47.9602 129.693L47.3471 128.845L46.4111 126.678L47.7028 117.358C47.7028 117.358 48.2551 116.076 51.1099 115.61Z" fill="#F9B587"/>
<path d="M52.322 116.467C51.5367 116.038 50.6397 115.855 49.748 115.941C49.748 115.941 51.2456 115.377 52.4765 115.983L52.322 116.467Z" fill="#F39568"/>
<path d="M88.8876 60.6783C92.9686 52.6631 91.3072 42.1268 91.017 39.466C90.9614 39.1435 90.8622 38.83 90.7222 38.534C89.1731 34.8712 82.1625 24.992 80.5666 22.7599L80.3185 22.4197C80.2671 22.3451 80.239 22.3125 80.239 22.3125L75.3203 24.5912C75.3203 24.5912 78.6291 28.035 79.9301 32.3548C81.2311 36.6746 84.3387 42.3412 84.3387 42.3412C82.9721 47.3553 82.8692 53.9166 82.8692 53.9166C85.2466 59.4527 88.8876 60.6783 88.8876 60.6783Z" fill="#F9B587"/>
<path d="M88.8876 60.6785C92.9686 52.6633 91.3072 42.127 91.017 39.4662C90.9614 39.1437 90.8622 38.8302 90.7222 38.5342C90.7222 38.6647 90.6005 47.1459 90.0483 49.8859C89.496 52.626 88.5975 55.5478 86.9782 55.9439C85.3589 56.34 83.7443 55.4174 82.8691 53.9262C85.2466 59.4529 88.8876 60.6785 88.8876 60.6785Z" fill="#F39568"/>
<path d="M80.2247 22.68C78.9969 23.7221 77.6817 24.6575 76.2935 25.476C76.1484 25.5413 75.9519 25.4481 75.76 25.299C75.0373 25.3339 74.3145 25.2311 73.6306 24.9961C73.2562 24.819 73.2749 24.2831 73.3872 23.7192C72.484 23.4816 70.743 22.0509 70.7992 20.7368C70.8647 19.3062 72.4138 19.2363 72.4138 19.2363C72.4044 19.032 72.4429 18.8283 72.5263 18.6414C72.6096 18.4544 72.7354 18.2893 72.8939 18.1591C73.0523 18.029 73.239 17.9373 73.4391 17.8913C73.6393 17.8453 73.8474 17.8463 74.0471 17.8942C74.1454 17.1812 75.4511 16.8923 75.4511 16.8923C75.6009 16.2865 76.4573 16.2026 76.9581 16.4543C77.4588 16.7059 80.3932 20.2662 80.4961 20.9139C80.5209 21.5145 80.4287 22.1143 80.2247 22.68Z" fill="#F9B587"/>
<path d="M75.7414 23.0021C75.938 23.8315 75.2407 23.9341 75.2407 23.9341C75.3858 23.8269 75.3811 23.4681 75.3483 23.1745C75.3448 23.0168 75.3212 22.8602 75.2781 22.7085C75.2416 22.5479 75.1703 22.3971 75.0693 22.2667C74.9683 22.1363 74.8399 22.0295 74.6931 21.9536C74.0754 21.66 73.7899 21.8417 73.7899 21.8417L72.5918 20.1362C73.1254 20.5284 73.6149 20.9768 74.052 21.4736C74.4271 21.4601 74.7951 21.5775 75.0925 21.8055C75.3899 22.0336 75.5979 22.3579 75.6806 22.7225C75.8037 22.7265 75.9246 22.6899 76.0246 22.6182C76.1245 22.5465 76.1977 22.4439 76.2328 22.3264C76.2797 22.1266 76.2865 21.9197 76.2527 21.7173C76.219 21.515 76.1454 21.3213 76.0363 21.1474L74.3749 18.8174C74.3749 18.8174 76.6634 21.0542 76.7149 21.9023C76.7406 22.0411 76.7344 22.184 76.6966 22.3201C76.6588 22.4561 76.5904 22.5819 76.4966 22.6878C76.4029 22.7937 76.2862 22.877 76.1554 22.9315C76.0245 22.9859 75.883 23.0101 75.7414 23.0021Z" fill="#F39568"/>
<path d="M76.1113 18.1465C76.7268 18.8951 77.2882 19.6862 77.7914 20.5138C77.8355 20.6286 77.8556 20.7511 77.8505 20.8739C77.8454 20.9967 77.8152 21.1171 77.7618 21.2279C77.7083 21.3387 77.6328 21.4375 77.5397 21.5182C77.4466 21.5989 77.338 21.6599 77.2205 21.6974C77.115 21.7291 77.0033 21.735 76.895 21.7147C76.7867 21.6944 76.6848 21.6485 76.598 21.5809V22.1587C76.598 22.1587 78.1424 22.4383 78.1658 20.9704C78.1565 20.2342 76.1113 18.1465 76.1113 18.1465Z" fill="#F39568"/>
<path d="M78.076 20.6299C78.1834 20.7331 78.315 20.808 78.4588 20.8479C78.6026 20.8878 78.7541 20.8913 78.8996 20.8583C79.3676 20.7231 79.4566 20.4202 79.3676 20.1406C79.4458 20.2331 79.4906 20.349 79.4948 20.4698C79.4991 20.5906 79.4625 20.7093 79.391 20.807C79.0681 21.3103 78.31 21.1984 78.0713 21.1332L78.076 20.6299Z" fill="#F39568"/>
<path d="M79.6348 23.3471C80.0095 23.2605 80.3412 23.0441 80.5708 22.7367L80.3227 22.3965C80.1442 22.7469 79.9121 23.0676 79.6348 23.3471Z" fill="#F39568"/>
<path d="M76.1338 25.5044C76.5267 25.4717 76.9096 25.3642 77.2617 25.1875C77.0326 25.4753 76.7233 25.6893 76.3725 25.8026L76.1338 25.5044Z" fill="#F39568"/>
<path d="M84.3379 42.3177C84.3379 42.3177 86.4907 41.9962 87.2254 41.3857C86.9325 41.9627 86.484 42.4471 85.9302 42.7846C85.3764 43.122 84.7391 43.2992 84.0898 43.2963L84.3379 42.3177Z" fill="#F39568"/>
<path d="M35.0108 134.996C35.8766 135.639 35.4788 135.783 36.3353 136.245C37.426 136.961 38.4745 137.739 39.4756 138.575C45.1664 144.595 54.7651 153.953 59.9646 154.675C64.8692 155.346 72.1747 141.65 76.8407 131.598C76.8875 131.524 78.7922 128.733 81.633 129.553C84.4738 130.373 95.1254 140.303 100.011 142.815C100.011 142.815 93.4594 143.151 91.3253 145.881C89.1912 148.612 83.2382 151.212 82.1572 151.678C81.0761 152.144 80.5098 151.627 79.5036 152.289C78.4974 152.951 76.9764 153.761 76.9764 153.761C76.9343 156.804 78.0762 159.442 80.3086 162.084C80.8907 161.775 81.5001 161.519 82.1291 161.32C83.3693 160.957 85.9807 160.271 86.444 159.419C86.9074 158.566 103.035 155.187 103.035 155.187C103.035 155.187 115.427 152.741 116.391 146.883C117.355 141.026 92.1911 114.729 92.1911 114.729L90.2442 106.29L81.1603 107.786L64.5838 109.002C64.5838 109.002 61.7477 116.593 60.9474 123.448C60.4139 128.029 57.3719 138.91 57.3719 138.91C57.3719 138.91 54.5639 136.039 49.107 133.714C47.703 133.122 46.2756 132.475 44.895 131.85C44.895 131.85 42.8264 130.816 42.087 129.818C41.3476 128.821 40.9264 129.208 40.1448 128.97C39.3632 128.733 38.708 127.796 38.1886 127.894C38.0575 127.905 37.9299 127.942 37.8134 128.003C37.6968 128.063 37.5937 128.147 37.51 128.248C36.1855 129.492 35.5865 130.308 34.702 133.374C34.7347 133.327 34.1638 134.353 35.0108 134.996Z" fill="#2C2A40"/>
<path d="M49.8376 136.711L49.6504 137.005C50.0388 137.251 50.4554 137.54 50.8859 137.867L51.0965 137.587C50.6566 137.256 50.2354 136.963 49.8376 136.711Z" fill="#5B5B6C"/>
<path d="M47.5632 135.485L47.3994 135.793C47.7738 135.989 48.1342 136.17 48.4711 136.338C48.5647 136.38 48.6583 136.431 48.7566 136.483L48.9204 136.17L48.6256 136.021L47.5632 135.485Z" fill="#5B5B6C"/>
<path d="M45.1436 134.534C45.6116 134.8 46.0421 135.052 46.468 135.289L46.6412 134.982C46.2153 134.749 45.7707 134.516 45.3214 134.231L45.1436 134.534Z" fill="#5B5B6C"/>
<path d="M51.7139 138.505C52.0789 138.798 52.458 139.115 52.8745 139.474L53.1038 139.213C52.6873 138.849 52.3035 138.528 51.9338 138.234L51.7139 138.505Z" fill="#5B5B6C"/>
<path d="M55.8133 141.617L55.584 141.883C55.9221 142.193 56.2818 142.48 56.6604 142.74C56.7134 142.777 56.7699 142.808 56.8289 142.833L56.9739 142.517C56.9309 142.498 56.8901 142.474 56.8523 142.447C56.4871 142.194 56.1399 141.917 55.8133 141.617Z" fill="#5B5B6C"/>
<path d="M57.8213 142.457L57.9944 142.764C58.4463 142.478 58.8271 142.094 59.1083 141.641L58.8228 141.445C58.5692 141.853 58.227 142.198 57.8213 142.457Z" fill="#5B5B6C"/>
<path d="M53.9 139.907L53.666 140.168L54.602 141.016L54.7845 141.179L55.0185 140.923L54.836 140.755L53.9 139.907Z" fill="#5B5B6C"/>
<path d="M42.9434 133.193C43.3599 133.458 43.7951 133.729 44.235 133.994L44.4176 133.696C43.9776 133.43 43.5471 133.16 43.1306 132.895L42.9434 133.193Z" fill="#5B5B6C"/>
<path d="M36.8646 129.553C36.7757 129.655 36.6868 129.762 36.6025 129.87C36.8787 129.907 37.2811 129.972 37.7164 130.075L37.7959 129.734C37.4403 129.651 37.1267 129.595 36.8646 129.553Z" fill="#5B5B6C"/>
<path d="M38.8443 130.037L38.7227 130.363C39.1508 130.505 39.5479 130.726 39.8927 131.016L39.9722 131.086L40.2062 130.825L40.1313 130.759C39.7534 130.438 39.3163 130.192 38.8443 130.037Z" fill="#5B5B6C"/>
<path d="M41.0057 131.464L40.7998 131.748C41.1555 132.004 41.5767 132.298 42.0587 132.615L42.2506 132.326C41.7779 132.009 41.3567 131.72 41.0057 131.464Z" fill="#5B5B6C"/>
<path d="M64.0508 120.68L64.3877 120.768L64.7809 119.305L64.4439 119.212C64.3066 119.7 64.1756 120.189 64.0508 120.68Z" fill="#5B5B6C"/>
<path d="M64.7246 118.202L65.0616 118.295C65.202 117.801 65.3377 117.316 65.4781 116.836L65.1411 116.738C65.0007 117.218 64.8603 117.708 64.7246 118.202Z" fill="#5B5B6C"/>
<path d="M62.8242 125.671L63.1659 125.75C63.2735 125.284 63.3858 124.776 63.5075 124.273L63.1799 124.185C63.0442 124.697 62.9319 125.196 62.8242 125.671Z" fill="#5B5B6C"/>
<path d="M63.4141 123.169L63.7557 123.253C63.8727 122.787 63.9944 122.279 64.1254 121.785L63.7838 121.696C63.6481 122.195 63.5311 122.694 63.4141 123.169Z" fill="#5B5B6C"/>
<path d="M65.4355 115.726L65.7725 115.829C65.9191 115.332 66.0642 114.847 66.2077 114.375L65.8708 114.272C65.7273 114.748 65.5822 115.232 65.4355 115.726Z" fill="#5B5B6C"/>
<path d="M59.3467 140.56L59.6556 140.723C59.8919 140.268 60.1044 139.801 60.292 139.325L59.9644 139.194C59.7829 139.66 59.5767 140.116 59.3467 140.56Z" fill="#5B5B6C"/>
<path d="M66.9805 110.82L67.3128 110.932C67.4906 110.415 67.6591 109.93 67.8135 109.506L67.4859 109.385C67.3268 109.813 67.1583 110.298 66.9805 110.82Z" fill="#5B5B6C"/>
<path d="M66.1846 113.271L66.5169 113.373C66.676 112.874 66.8304 112.39 66.9849 111.928L66.6526 111.821C66.4981 112.283 66.339 112.767 66.1846 113.271Z" fill="#5B5B6C"/>
<path d="M60.3301 138.22L60.6624 138.332C60.8215 137.866 60.9712 137.4 61.1304 136.878L60.7887 136.78C60.6343 137.279 60.4845 137.764 60.3301 138.22Z" fill="#5B5B6C"/>
<path d="M62.2998 128.192L62.6461 128.258C62.7304 127.792 62.8333 127.293 62.941 126.771L62.5993 126.701C62.487 127.223 62.3887 127.726 62.2998 128.192Z" fill="#5B5B6C"/>
<path d="M61.041 135.774L61.3827 135.858C61.5043 135.369 61.612 134.87 61.7149 134.367L61.3686 134.302C61.2703 134.796 61.1627 135.294 61.041 135.774Z" fill="#5B5B6C"/>
<path d="M61.5557 133.276L61.902 133.332C61.9862 132.829 62.0611 132.326 62.1219 131.822L61.7756 131.78C61.7148 132.274 61.6399 132.778 61.5557 133.276Z" fill="#5B5B6C"/>
<path d="M61.8926 130.741L62.2436 130.783C62.2951 130.317 62.3699 129.851 62.4589 129.287L62.1125 129.231C62.0236 129.777 61.9487 130.289 61.8926 130.741Z" fill="#5B5B6C"/>
<path d="M83.3272 127.842C82.8011 127.83 82.2764 127.902 81.7734 128.057L81.8764 128.392C82.3427 128.247 82.8296 128.18 83.3178 128.192L83.3272 127.842Z" fill="#5B5B6C"/>
<path d="M85.6861 128.877L85.8593 128.574C85.7189 128.495 85.5831 128.425 85.4615 128.369C85.1236 128.209 84.771 128.081 84.4085 127.987L84.3242 128.327C84.6646 128.414 84.9954 128.534 85.3117 128.686C85.4287 128.738 85.5504 128.803 85.6861 128.877Z" fill="#5B5B6C"/>
<path d="M86.5801 151.212L86.7392 151.524C87.2072 151.296 87.6518 151.058 88.0964 150.83L87.9326 150.522C87.5161 150.769 87.0481 150.998 86.5801 151.212Z" fill="#5B5B6C"/>
<path d="M88.8779 150.043L89.0417 150.35C89.5097 150.094 89.9777 149.842 90.3755 149.6L90.1977 149.302C89.7905 149.539 89.3459 149.786 88.8779 150.043Z" fill="#5B5B6C"/>
<path d="M91.0957 148.757L91.2829 149.055C91.7199 148.785 92.1417 148.491 92.5465 148.175L92.3265 147.904C91.9317 148.21 91.5208 148.495 91.0957 148.757Z" fill="#5B5B6C"/>
<path d="M77.814 155.64C78.1322 155.421 78.4411 155.22 78.75 155.038L78.5628 154.74C78.3007 154.899 78.0339 155.076 77.7578 155.267L77.814 155.64Z" fill="#5B5B6C"/>
<path d="M79.4707 154.209L79.6392 154.517C80.0741 154.281 80.53 154.086 81.0011 153.934L80.9028 153.599C80.4068 153.756 79.9272 153.96 79.4707 154.209Z" fill="#5B5B6C"/>
<path d="M88.583 131.002C88.934 131.295 89.3271 131.626 89.739 131.985L89.9683 131.719L88.8076 130.731L88.583 131.002Z" fill="#5B5B6C"/>
<path d="M81.9004 153.296L82.0174 153.627C82.4199 153.482 82.9019 153.296 83.4448 153.067L83.3044 152.741C82.7756 152.97 82.3029 153.156 81.9004 153.296Z" fill="#5B5B6C"/>
<path d="M84.2725 152.322L84.4175 152.643C84.8855 152.443 85.3255 152.229 85.8215 152L85.6437 151.679C85.1757 151.912 84.7077 152.145 84.2725 152.322Z" fill="#5B5B6C"/>
<path d="M80.5614 129.017C80.6784 128.943 80.8048 128.864 80.9405 128.789L80.772 128.481C80.55 128.605 80.3358 128.742 80.1309 128.892L80.5614 129.017Z" fill="#5B5B6C"/>
<path d="M86.7579 129.147L86.5566 129.436C86.917 129.683 87.3242 129.991 87.7688 130.34L87.984 130.065C87.516 129.711 87.1229 129.404 86.7579 129.147Z" fill="#5B5B6C"/>
<path d="M101.893 144.688C101.511 144.902 101.1 145.059 100.672 145.154L100.761 145.49C101.233 145.394 101.687 145.223 102.104 144.982L102.23 144.879L101.996 144.618L101.893 144.688Z" fill="#5B5B6C"/>
<path d="M98.4719 139.218L98.252 139.493C98.72 139.866 99.1224 140.168 99.4781 140.425L99.6794 140.14C99.3284 139.884 98.9352 139.591 98.4719 139.218Z" fill="#5B5B6C"/>
<path d="M100.569 140.653L100.414 140.97C100.858 141.172 101.275 141.429 101.654 141.734L101.879 141.464C101.478 141.141 101.037 140.868 100.569 140.653Z" fill="#5B5B6C"/>
<path d="M102.614 142.298L102.31 142.475C102.423 142.661 102.502 142.867 102.544 143.081C102.585 143.318 102.572 143.562 102.506 143.794L102.843 143.892C102.924 143.608 102.94 143.31 102.89 143.02C102.84 142.766 102.746 142.521 102.614 142.298Z" fill="#5B5B6C"/>
<path d="M98.8981 145.55L98.168 145.723L98.2522 146.063L98.9823 145.89L99.7358 145.713L99.6515 145.373L98.8981 145.55Z" fill="#5B5B6C"/>
<path d="M95.6689 146.38L95.7719 146.716C96.2025 146.585 96.6798 146.455 97.2321 146.315L97.1431 145.975C96.5909 146.119 96.1089 146.25 95.6689 146.38Z" fill="#5B5B6C"/>
<path d="M93.2354 147.307L93.3992 147.619C93.8438 147.394 94.3035 147.199 94.7751 147.037L94.6581 146.706C94.1709 146.875 93.6957 147.076 93.2354 147.307Z" fill="#5B5B6C"/>
<path d="M93.4827 134.856L92.6637 134.129L92.4297 134.39L93.23 135.112L93.5576 135.41L93.7916 135.149L93.4827 134.856Z" fill="#5B5B6C"/>
<path d="M94.3535 136.114L95.4861 137.13L95.7201 136.869L94.5875 135.857L94.3535 136.114Z" fill="#5B5B6C"/>
<path d="M97.6579 138.556C97.3069 138.258 96.9325 137.936 96.5113 137.563L96.2773 137.829C96.7032 138.197 97.0776 138.523 97.4333 138.822L97.6579 138.556Z" fill="#5B5B6C"/>
<path d="M91.8968 133.425L90.7643 132.414L90.5303 132.675C90.9047 133.006 91.2838 133.341 91.6628 133.686L91.8968 133.425Z" fill="#5B5B6C"/>
<path d="M93.5997 114.105C93.5997 114.105 76.9857 119.492 68.0141 117.078C67.3449 116.897 61.888 115.797 61.888 115.797C61.888 115.797 64.9674 104.147 64.1063 96.4252C63.8817 94.3748 63.395 90.3299 61.9395 86.6392C61.42 85.3251 60.8865 83.9876 60.3623 82.6875C58.8039 78.8383 57.3531 75.3294 56.7119 73.7916C57.5126 73.2134 58.4236 72.8042 59.3889 72.5893H59.4357C61.2474 72.2886 63.0386 71.8761 64.799 71.3544C67.5698 70.5697 70.205 69.3708 72.6146 67.7988L74.861 66.5546L77.201 65.2451C77.201 65.2451 80.1026 66.289 83.1165 70.5762C82.3597 71.4827 81.5217 72.3187 80.6127 73.0739C81.383 73.5601 82.1997 73.969 83.051 74.2948C83.6376 73.9633 84.1854 73.5679 84.6843 73.1159C86.5937 76.6388 88.344 81.6623 89.2005 88.7688C89.9727 95.2229 91.3346 102.749 92.3408 107.921C93.0755 111.603 93.5997 114.105 93.5997 114.105Z" fill="#84519E"/>
<path d="M69.2644 74.0895C66.1849 73.8285 65.4782 72.3653 64.8184 71.368C67.5835 70.5772 70.2123 69.3737 72.6152 67.7985L74.0894 66.9736C74.5106 66.9736 75.5496 67.7472 75.5496 69.3036C75.5496 71.3727 73.3594 74.439 69.2644 74.0895Z" fill="#2C2A40"/>
<path opacity="0.2" d="M79.1152 78.5166L84.5206 76.1074C84.5206 76.1074 88.7326 82.3891 85.2975 83.6193C81.6144 84.9521 79.1152 78.5166 79.1152 78.5166Z" fill="#2C2A40"/>
<path d="M73.3445 52.5274C73.3445 52.5274 75.6143 50.8172 74.683 47.4014C74.683 47.4014 73.9202 48.7062 73.2275 48.8367C73.2275 48.8367 74.9825 44.1114 69.6192 41.4785C69.6192 41.4785 70.2464 44.0788 69.6192 44.9409C69.6192 44.9409 68.2153 41.9352 66.1046 41.3154C66.1046 41.3154 66.4181 46.5859 63.1375 47.653C60.7975 48.4126 57.7695 51.1201 56.9365 55.575C56.9365 55.575 55.5746 55.1836 55.0645 55.7148C55.0645 55.7148 56.8054 56.0084 57.0488 57.1128C56.8462 57.0119 56.6199 56.9676 56.394 56.9849C56.1681 57.0021 55.9512 57.0802 55.7665 57.2107C55.7665 57.2107 56.9973 57.4623 57.1705 58.4223C57.3436 59.3822 62.0236 66.7124 64.8363 67.938C67.649 69.1636 73.3445 52.5274 73.3445 52.5274Z" fill="#2C2A40"/>
<path d="M66.0679 69.0242L66.4423 71.1771C66.4895 71.4454 66.6129 71.6946 66.7978 71.8953C66.9828 72.096 67.2216 72.2397 67.486 72.3095C72.1379 73.5164 74.1877 70.6365 74.4171 69.5135C73.818 69.2758 63.1851 64.984 61.416 60.9111C61.416 60.9205 62.5392 66.4006 66.0679 69.0242Z" fill="#F9B587"/>
<path d="M74.6927 57.0288C75.4039 58.021 75.7912 59.2071 75.8019 60.426V64.1912C75.8046 64.8734 75.5926 65.5392 75.1955 66.0951C74.7984 66.651 74.2363 67.0689 73.5882 67.2902C71.7172 67.9657 69.698 68.1267 67.7429 67.7562C63.6151 66.8614 61.6589 61.8846 61.6589 61.8846C61.6589 61.8846 59.9413 56.7213 63.3999 53.161C65.8007 50.6959 69.0159 50.2113 70.7709 50.146C71.1389 50.1319 71.5036 50.2193 71.8249 50.3985C72.1461 50.5778 72.4114 50.842 72.5914 51.1619L73.9158 53.5199C74.0221 53.7052 74.1175 53.8966 74.2013 54.093C74.4851 54.751 74.6438 55.4557 74.6693 56.1714L74.6927 57.0288Z" fill="#F9B587"/>
<path d="M69.7886 54.6342C69.7886 54.6342 66.5126 53.2362 65.6982 55.9669L66.199 56.3817C66.199 56.3817 67.2894 54.308 69.8962 55.3518L69.7886 54.6342Z" fill="#2C2A40"/>
<path d="M74.6932 57.0295C75.0736 57.5575 75.363 58.145 75.5497 58.7676C74.8991 58.6045 73.7619 58.7071 71.8057 59.7882C72.2421 59.0352 72.8828 58.4199 73.6543 58.0127C73.7235 57.9853 73.7851 57.9419 73.8341 57.886C73.8831 57.8301 73.9179 57.7634 73.9358 57.6913C73.9536 57.6193 73.954 57.5441 73.9367 57.472C73.9195 57.3998 73.8853 57.3328 73.8368 57.2764L72.4843 55.6408C72.546 55.3343 72.7111 55.0581 72.9523 54.8579C73.3375 54.5754 73.7462 54.326 74.1738 54.1123C74.4575 54.7703 74.6162 55.475 74.6418 56.1907L74.6932 57.0295Z" fill="#F39568"/>
<path d="M73.869 53.5853C73.3913 53.811 72.9434 54.0943 72.5352 54.4288L72.7036 55.0672C73.1196 54.7114 73.5947 54.4307 74.1076 54.2377C74.1575 54.2231 74.2039 54.1984 74.2438 54.1651C74.2837 54.1319 74.3163 54.0908 74.3395 54.0445C74.3628 53.9981 74.3763 53.9475 74.379 53.8958C74.3818 53.844 74.3739 53.7923 74.3557 53.7438C74.3108 53.6599 74.235 53.5966 74.1443 53.5671C74.0536 53.5375 73.9549 53.5441 73.869 53.5853Z" fill="#2C2A40"/>
<path d="M74.8797 60.3428L69.0391 62.0064C69.0391 62.0064 70.8783 64.7791 73.8407 63.5349C76.1854 62.5376 74.8797 60.3428 74.8797 60.3428Z" fill="white"/>
<path d="M73.2325 67.3324C73.2325 67.3324 69.568 68.2644 65.7866 64.1543C65.7866 64.1543 65.6181 66.2793 67.6586 68.4462C69.6991 70.6131 74.4118 69.5226 74.4118 69.5226L73.2325 67.3324Z" fill="#F39568"/>
<path d="M62.7826 60.5192C62.7826 60.5192 60.9106 58.9162 59.7359 60.426C58.5613 61.9359 61.2148 66.1951 63.1243 64.4569C65.0337 62.7187 62.7826 60.5192 62.7826 60.5192Z" fill="#F9B587"/>
<path d="M69.7878 56.6798C69.7878 56.6798 69.0624 55.8084 68.1638 56.1579C67.8071 56.2695 67.4998 56.5 67.2936 56.8105C67.0873 57.1211 66.9947 57.4929 67.0312 57.8635C67.0312 57.8635 67.6209 55.622 69.7878 56.6798Z" fill="#2C2A40"/>
<path d="M73.0078 56.2277C73.0078 56.2277 73.4758 54.8017 74.5382 55.8921C74.4165 55.8111 74.2796 55.7554 74.1358 55.7284C73.9919 55.7014 73.8441 55.7037 73.7012 55.735C73.5582 55.7664 73.4231 55.8262 73.3039 55.9108C73.1848 55.9955 73.0841 56.1033 73.0078 56.2277Z" fill="#2C2A40"/>
<path d="M62.0664 54.7223C62.0664 54.7223 63.4704 56.4325 62.3331 58.2173L63.5265 60.9574L62.291 61.2742L61.2614 59.7551L60.4658 55.8267C60.4658 55.8267 61.4252 54.0326 62.0664 54.7223Z" fill="#2C2A40"/>
<path d="M92.1117 57.43C92.1117 57.43 91.9619 58.1756 91.6437 59.3592C90.6375 63.1804 87.9371 71.5638 83.0606 74.2712C82.2093 73.9454 81.3926 73.5365 80.6223 73.0503C78.5678 71.7688 75.9938 69.4528 76.2278 65.9485C76.2278 65.9485 80.4117 59.0284 82.1854 54.1587C82.3492 53.6927 82.4896 53.2873 82.6066 52.8818L90.3848 56.6098L92.1117 57.43Z" fill="#84519E"/>
<path d="M92.1118 57.4297C92.1118 57.4297 91.9621 58.1753 91.6438 59.3589C89.8186 57.9609 84.0201 55.0717 82.1855 54.1724C82.3493 53.7064 82.4897 53.3009 82.6067 52.8955L90.3849 56.6235L92.1118 57.4297Z" fill="#2C2A40"/>
<path opacity="0.2" d="M92.112 57.4295C92.112 57.4295 89.9124 68.4411 84.7035 73.1058C84.2308 72.2297 83.7073 71.3817 83.1357 70.5661C87.0997 65.8595 89.5286 59.2423 90.3944 56.6094L92.112 57.4295Z" fill="#2C2A40"/>
<path d="M62.7357 79.8726C62.6559 80.3906 62.5481 80.9039 62.4127 81.4104L61.9447 86.6575L61.4206 91.709L61.2708 93.1722C60.3863 94.4071 57.3911 94.519 54.5597 94.3139C52.6244 94.162 50.6994 93.9006 48.7939 93.531C48.7939 93.531 48.8688 92.9625 49.0373 91.9886C49.7313 87.9373 50.7821 83.9547 52.1776 80.0869C53.4318 76.7038 55.2243 74.8351 56.7172 73.8146C57.5179 73.2364 58.4289 72.8273 59.3941 72.6123H59.4363C63.2973 72.9618 63.1194 77.4447 62.7357 79.8726Z" fill="#84519E"/>
<path d="M61.4255 91.709L61.2757 93.1722C60.3912 94.4071 57.396 94.519 54.5646 94.3139C52.6293 94.162 50.7043 93.9006 48.7988 93.531C48.7988 93.531 48.8737 92.9625 49.0422 91.9886C51.2829 92.4771 53.5674 92.7394 55.861 92.7715C57.7735 92.852 59.6785 92.4882 61.4255 91.709Z" fill="#2C2A40"/>
<path d="M73.2744 67.4213C73.2744 67.4213 79.3584 66.4893 83.2054 69.9144C87.0523 73.3395 90.8993 80.5065 88.564 84.8264L89.5 91.0568C89.5 91.0568 95.8554 81.1217 89.032 71.4848C84.4456 65.0074 78.5815 64.8489 75.6191 65.2823C75.4564 65.7396 75.1903 66.1535 74.8414 66.4921C74.4925 66.8307 74.07 67.0848 73.6067 67.2349L73.2744 67.4213Z" fill="#2C2A40"/>
<path d="M58.626 72.8271C58.626 72.8271 60.3623 68.8661 63.6055 69.3228C66.8487 69.7795 76.5551 82.9114 74.5005 92.5715C72.446 102.232 64.0548 103.257 64.0548 103.257C64.0548 103.257 62.4308 100.801 64.256 98.5223C66.001 97.9845 67.5708 96.994 68.8044 95.6527C70.0381 94.3113 70.8911 92.6673 71.276 90.8893C72.7643 84.6029 65.2622 71.8485 62.5104 71.4571C61.5182 71.3173 60.7694 72.3891 60.7694 72.3891C60.7694 72.3891 59.5854 72.6826 58.626 72.8271Z" fill="#2C2A40"/>
<path opacity="0.2" d="M93.5999 114.104C93.5999 114.104 76.9859 119.491 68.0144 117.078C67.3451 116.896 61.8883 115.796 61.8883 115.796C61.8883 115.796 64.9677 104.146 64.1066 96.4244C63.8819 94.374 63.3952 90.3291 61.9397 86.6384L61.2658 93.1624C60.3813 94.3973 57.3861 94.5092 54.5547 94.3041C54.5547 94.3041 59.0756 91.9089 59.5623 86.5313C59.6707 85.2288 59.9427 83.9451 60.3719 82.7101C61.2424 80.2729 62.4405 79.3828 62.4405 79.3828L62.7353 79.8768C63.6152 81.3726 66.1658 86 66.4793 89.728C66.8444 94.2342 68.2764 103.843 75.2684 109.533C79.1574 112.697 92.1538 112.199 92.3644 108.042C92.3621 108 92.3621 107.958 92.3644 107.916C93.0758 111.602 93.5999 114.104 93.5999 114.104Z" fill="#2C2A40"/>
</svg>
